<?xml version="1.0" encoding="UTF-8"?>
<svg id="Camada_2" data-name="Camada 2" xmlns="http://www.w3.org/2000/svg" viewBox="0 0 167.14 155.93">
  <defs>
    <style>
      .cls-1 {
        fill: #5e17eb;
      }

      .cls-1, .cls-2 {
        stroke-width: 0px;
      }

      .cls-2 {
        fill: #5ce1e6;
      }
    </style>
  </defs>
  <g id="Camada_1-2" data-name="Camada 1">
    <path class="cls-1" d="m132.8,155.93c-11.89,0-23.45-6.17-29.81-17.21L54.03,53.75c-9.48-16.45-3.83-37.46,12.62-46.94,16.44-9.48,37.46-3.83,46.94,12.62l48.96,84.96c9.48,16.45,3.83,37.46-12.62,46.94-5.4,3.12-11.3,4.6-17.13,4.6Z"/>
    <path class="cls-2" d="m34.34,153.94c-5.77,0-11.62-1.45-16.99-4.52C.86,140.02-4.88,119.04,4.51,102.55L53.07,17.35C62.47.86,83.46-4.88,99.95,4.51c16.49,9.4,22.24,30.39,12.84,46.88l-48.56,85.19c-6.34,11.12-17.95,17.35-29.89,17.35Z"/>
  </g>
</svg>