<?xml version="1.0" encoding="UTF-8"?>
<svg id="Camada_2" data-name="Camada 2" xmlns="http://www.w3.org/2000/svg" xmlns:xlink="http://www.w3.org/1999/xlink" viewBox="0 0 1160.08 237.28">
  <defs>
    <style>
      .cls-1 {
        fill: #e5e5e5;
      }

      .cls-1, .cls-2, .cls-3, .cls-4, .cls-5 {
        stroke-width: 0px;
      }

      .cls-6 {
        opacity: 0;
      }

      .cls-3 {
        fill: none;
      }

      .cls-4 {
        fill: #5ce1e6;
      }

      .cls-7 {
        clip-path: url(#clippath);
      }

      .cls-5 {
        fill: #f4f4f4;
      }
    </style>
    <clipPath id="clippath">
      <circle class="cls-3" cx="737.14" cy="28.81" r="28.81" transform="translate(13.1 170.13) rotate(-13.28)"/>
    </clipPath>
  </defs>
  <g id="Camada_1-2" data-name="Camada 1">
    <g>
      <g>
        <path class="cls-4" d="m737.13,235.65c-18.94,0-34.3-15.36-34.3-34.3v-97.86c0-18.94,15.36-34.3,34.3-34.3s34.3,15.36,34.3,34.3v97.86c0,18.94-15.36,34.3-34.3,34.3Z"/>
        <path class="cls-5" d="m925.65,237.28c-11.86,0-23.4-6.16-29.75-17.18l-48.86-84.79c-9.46-16.41-3.82-37.38,12.59-46.84,16.4-9.46,37.38-3.82,46.84,12.59l48.86,84.79c9.46,16.41,3.82,37.38-12.59,46.84-5.39,3.11-11.28,4.59-17.09,4.59Z"/>
        <path class="cls-4" d="m827.4,235.3c-5.76,0-11.59-1.45-16.95-4.51-16.46-9.38-22.19-30.32-12.81-46.78l48.46-85.02c9.38-16.46,30.33-22.19,46.78-12.81,16.46,9.38,22.19,30.32,12.81,46.78l-48.46,85.02c-6.33,11.1-17.91,17.32-29.83,17.32Z"/>
        <g class="cls-7">
          <rect class="cls-1" x="708.33" width="57.62" height="57.62"/>
        </g>
        <rect class="cls-3" x="708.33" width="57.62" height="57.62"/>
        <g class="cls-6">
          <rect class="cls-2" x="702.85" y="69.2" width="68.59" height="166.45"/>
        </g>
        <g>
          <path class="cls-5" d="m227.92,163.7c0,9.72-1.81,17.48-5.43,23.29-3.62,5.8-9.85,8.71-18.67,8.71s-14.78-2.9-18.45-8.71c-3.67-5.8-5.51-13.56-5.51-23.29v-56.54h-44.49v61.31c0,13.09,2.68,24.48,8.04,34.15,5.36,9.67,13.14,17.14,23.36,22.39,10.22,5.26,22.57,7.89,37.05,7.89s26.98-2.63,37.2-7.89c10.22-5.26,18.03-12.72,23.44-22.39,5.41-9.67,8.11-21.06,8.11-34.15v-61.31h-44.64v56.54Z"/>
          <path class="cls-5" d="m377.02,193.61c-1.89,1.19-4.17,1.79-6.85,1.79-3.97,0-6.7-1.56-8.18-4.69-1.49-3.12-2.23-7.22-2.23-12.28v-34.08h27.38v-37.2h-27.38v-50.15h-44.79v50.15h-20.83v37.2h20.83v46.28c0,14.39,3.97,25.02,11.91,31.92,7.93,6.89,18,10.34,30.21,10.34,6.84,0,13.04-.65,18.6-1.93,5.55-1.29,10.14-2.73,13.76-4.32,3.62-1.59,5.78-2.68,6.47-3.27l-15.48-32.14c-.4.4-1.54,1.19-3.42,2.38Z"/>
          <path class="cls-5" d="m514.8,112.07c-10.22-5.65-22.02-8.48-35.41-8.48s-25.27,2.83-35.64,8.48c-10.37,5.65-18.5,13.37-24.4,23.14-5.9,9.77-8.85,20.91-8.85,33.41s2.95,23.58,8.85,33.26c5.9,9.67,14.04,17.26,24.4,22.77,10.37,5.51,22.25,8.26,35.64,8.26s25.2-2.75,35.41-8.26c10.22-5.51,18.2-13.09,23.96-22.77,5.75-9.67,8.63-20.76,8.63-33.26s-2.88-23.63-8.63-33.41c-5.76-9.77-13.74-17.48-23.96-23.14Zm-13.24,70.53c-2.08,4.17-5.01,7.39-8.78,9.67-3.77,2.28-8.23,3.42-13.39,3.42s-9.65-1.14-13.47-3.42c-3.82-2.28-6.79-5.51-8.93-9.67-2.13-4.17-3.2-8.88-3.2-14.14s1.06-10.12,3.2-14.28c2.13-4.17,5.11-7.44,8.93-9.82,3.82-2.38,8.31-3.57,13.47-3.57s9.62,1.19,13.39,3.57c3.77,2.38,6.7,5.66,8.78,9.82,2.08,4.17,3.12,8.93,3.12,14.28s-1.04,9.97-3.12,14.14Z"/>
          <path class="cls-5" d="m670.74,106.19c-4.76-1.73-9.97-2.6-15.62-2.6-8.04,0-14.83,1.41-20.38,4.24-5.56,2.83-9.87,6-12.95,9.52-2.36,2.7-4.04,5.04-5.06,7.01v-17.2h-45.23v122.16h45.23v-61.31c0-3.87.92-7.98,2.75-12.35,1.84-4.36,4.71-8.08,8.63-11.16,3.92-3.07,8.9-4.61,14.95-4.61,5.26,0,9.65.92,13.17,2.75,3.52,1.84,5.98,3.6,7.36,5.28l17.56-36.75c-2.18-1.58-5.65-3.25-10.42-4.98Z"/>
          <polygon class="cls-5" points="138.09 32.91 0 32.91 0 71.89 46.87 71.89 46.87 229.32 91.36 229.32 91.36 71.89 138.09 71.89 138.09 32.91"/>
        </g>
      </g>
      <g>
        <path class="cls-5" d="m1043.98,156.03v44.47h9.25v18.15h-9.25v16.71h-20.85v-16.71h-32.39v-16.47l28.97-46.15h24.28Zm-20.85,44.47v-18.57h-.12l-11.48,18.57h11.6Z"/>
        <path class="cls-5" d="m1072.88,236.8c-3.29,0-6.1-1.17-8.44-3.52-2.34-2.34-3.52-5.16-3.52-8.44s1.17-6.22,3.52-8.56c2.34-2.34,5.16-3.52,8.44-3.52s6.16,1.17,8.5,3.52c2.34,2.34,3.52,5.2,3.52,8.56s-1.17,6.1-3.52,8.44c-2.34,2.34-5.18,3.52-8.5,3.52Z"/>
        <path class="cls-5" d="m1093.85,195.75c0-6.81.88-12.79,2.64-17.94,1.76-5.15,4.2-9.44,7.3-12.89,3.1-3.44,6.64-6.03,10.61-7.75s8.15-2.58,12.56-2.58,8.71.86,12.68,2.58c3.97,1.72,7.48,4.31,10.55,7.75,3.06,3.45,5.48,7.74,7.24,12.89,1.76,5.15,2.64,11.13,2.64,17.94,0,7.41-.88,13.72-2.64,18.93-1.76,5.21-4.18,9.44-7.24,12.68s-6.58,5.63-10.55,7.15c-3.97,1.52-8.19,2.28-12.68,2.28s-8.59-.76-12.56-2.28c-3.97-1.52-7.5-3.91-10.61-7.15-3.1-3.25-5.54-7.47-7.3-12.68-1.76-5.21-2.64-11.52-2.64-18.93Zm20.91,0c0,5.21.47,9.49,1.41,12.83.94,3.35,2.31,5.83,4.12,7.45,1.8,1.62,4.03,2.43,6.67,2.43s4.93-.81,6.73-2.43c1.8-1.62,3.16-4.12,4.06-7.48.9-3.36,1.35-7.63,1.35-12.8,0-4.77-.45-8.84-1.35-12.23-.9-3.38-2.25-6-4.06-7.84-1.8-1.84-4.05-2.76-6.73-2.76s-4.87.92-6.67,2.76c-1.8,1.84-3.18,4.47-4.12,7.87-.94,3.41-1.41,7.47-1.41,12.2Z"/>
      </g>
    </g>
  </g>
</svg>